<?xml version="1.0" encoding="UTF-8" standalone="no"?>
<!-- Generator: Adobe Illustrator 19.0.0, SVG Export Plug-In . SVG Version: 6.00 Build 0)  -->

<svg
   xmlns:dc="http://purl.org/dc/elements/1.1/"
   xmlns:cc="http://creativecommons.org/ns#"
   xmlns:rdf="http://www.w3.org/1999/02/22-rdf-syntax-ns#"
   xmlns:svg="http://www.w3.org/2000/svg"
   xmlns="http://www.w3.org/2000/svg"
   xmlns:sodipodi="http://sodipodi.sourceforge.net/DTD/sodipodi-0.dtd"
   xmlns:inkscape="http://www.inkscape.org/namespaces/inkscape"
   version="1.1"
   id="Capa_1"
   x="0px"
   y="0px"
   viewBox="0 0 512 512"
   xml:space="preserve"
   inkscape:version="0.91 r13725"
   sodipodi:docname="alarm.svg"
   width="512"
   height="512"
   inkscape:export-filename="C:\Users\wojci\Downloads\mymanagement\images\alarm.png"
   inkscape:export-xdpi="90"
   inkscape:export-ydpi="90"><metadata
     id="metadata73"><rdf:RDF><cc:Work
         rdf:about=""><dc:format>image/svg+xml</dc:format><dc:type
           rdf:resource="http://purl.org/dc/dcmitype/StillImage" /><dc:title /></cc:Work></rdf:RDF></metadata><defs
     id="defs71" /><sodipodi:namedview
     pagecolor="#ffffff"
     bordercolor="#666666"
     borderopacity="1"
     objecttolerance="10"
     gridtolerance="10"
     guidetolerance="10"
     inkscape:pageopacity="0"
     inkscape:pageshadow="2"
     inkscape:window-width="1366"
     inkscape:window-height="705"
     id="namedview69"
     showgrid="false"
     inkscape:zoom="3.9333333"
     inkscape:cx="-33.177967"
     inkscape:cy="30"
     inkscape:window-x="-8"
     inkscape:window-y="-8"
     inkscape:window-maximized="1"
     inkscape:current-layer="Capa_1" /><g
     id="g3"
     transform="scale(8.5333333,8.5333333)"
     inkscape:export-xdpi="28"
     inkscape:export-ydpi="28"><path
       d="M 56.281,2 3.719,2 C 1.668,2 0,3.668 0,5.719 L 0,54.282 C 0,56.332 1.668,58 3.719,58 l 52.563,0 C 58.332,58 60,56.332 60,54.281 L 60,5.719 C 60,3.668 58.332,2 56.281,2 Z M 58,54.281 C 58,55.229 57.229,56 56.281,56 L 3.719,56 C 2.771,56 2,55.229 2,54.281 L 2,5.719 C 2,4.771 2.771,4 3.719,4 L 56.282,4 C 57.229,4 58,4.771 58,5.719 l 0,48.562 z"
       id="path5"
       inkscape:connector-curvature="0" /><path
       d="M 53,8 7,8 C 6.447,8 6,8.447 6,9 l 0,10 c 0,0.553 0.447,1 1,1 l 46,0 c 0.553,0 1,-0.447 1,-1 L 54,9 C 54,8.447 53.553,8 53,8 Z m -1,10 -44,0 0,-8 44,0 0,8 z"
       id="path7"
       inkscape:connector-curvature="0" /><path
       d="m 10,24 c -2.206,0 -4,1.794 -4,4 0,2.206 1.794,4 4,4 2.206,0 4,-1.794 4,-4 0,-2.206 -1.794,-4 -4,-4 z m 0,6 c -1.103,0 -2,-0.897 -2,-2 0,-1.103 0.897,-2 2,-2 1.103,0 2,0.897 2,2 0,1.103 -0.897,2 -2,2 z"
       id="path9"
       inkscape:connector-curvature="0" /><path
       d="m 20,24 c -2.206,0 -4,1.794 -4,4 0,2.206 1.794,4 4,4 2.206,0 4,-1.794 4,-4 0,-2.206 -1.794,-4 -4,-4 z m 0,6 c -1.103,0 -2,-0.897 -2,-2 0,-1.103 0.897,-2 2,-2 1.103,0 2,0.897 2,2 0,1.103 -0.897,2 -2,2 z"
       id="path11"
       inkscape:connector-curvature="0" /><path
       d="m 30,24 c -2.206,0 -4,1.794 -4,4 0,2.206 1.794,4 4,4 2.206,0 4,-1.794 4,-4 0,-2.206 -1.794,-4 -4,-4 z m 0,6 c -1.103,0 -2,-0.897 -2,-2 0,-1.103 0.897,-2 2,-2 1.103,0 2,0.897 2,2 0,1.103 -0.897,2 -2,2 z"
       id="path13"
       inkscape:connector-curvature="0" /><path
       d="m 10,34 c -2.206,0 -4,1.794 -4,4 0,2.206 1.794,4 4,4 2.206,0 4,-1.794 4,-4 0,-2.206 -1.794,-4 -4,-4 z m 0,6 c -1.103,0 -2,-0.897 -2,-2 0,-1.103 0.897,-2 2,-2 1.103,0 2,0.897 2,2 0,1.103 -0.897,2 -2,2 z"
       id="path15"
       inkscape:connector-curvature="0" /><path
       d="m 20,34 c -2.206,0 -4,1.794 -4,4 0,2.206 1.794,4 4,4 2.206,0 4,-1.794 4,-4 0,-2.206 -1.794,-4 -4,-4 z m 0,6 c -1.103,0 -2,-0.897 -2,-2 0,-1.103 0.897,-2 2,-2 1.103,0 2,0.897 2,2 0,1.103 -0.897,2 -2,2 z"
       id="path17"
       inkscape:connector-curvature="0" /><path
       d="m 30,34 c -2.206,0 -4,1.794 -4,4 0,2.206 1.794,4 4,4 2.206,0 4,-1.794 4,-4 0,-2.206 -1.794,-4 -4,-4 z m 0,6 c -1.103,0 -2,-0.897 -2,-2 0,-1.103 0.897,-2 2,-2 1.103,0 2,0.897 2,2 0,1.103 -0.897,2 -2,2 z"
       id="path19"
       inkscape:connector-curvature="0" /><path
       d="m 10,44 c -2.206,0 -4,1.794 -4,4 0,2.206 1.794,4 4,4 2.206,0 4,-1.794 4,-4 0,-2.206 -1.794,-4 -4,-4 z m 0,6 c -1.103,0 -2,-0.897 -2,-2 0,-1.103 0.897,-2 2,-2 1.103,0 2,0.897 2,2 0,1.103 -0.897,2 -2,2 z"
       id="path21"
       inkscape:connector-curvature="0" /><path
       d="m 20,44 c -2.206,0 -4,1.794 -4,4 0,2.206 1.794,4 4,4 2.206,0 4,-1.794 4,-4 0,-2.206 -1.794,-4 -4,-4 z m 0,6 c -1.103,0 -2,-0.897 -2,-2 0,-1.103 0.897,-2 2,-2 1.103,0 2,0.897 2,2 0,1.103 -0.897,2 -2,2 z"
       id="path23"
       inkscape:connector-curvature="0" /><path
       d="m 30,44 c -2.206,0 -4,1.794 -4,4 0,2.206 1.794,4 4,4 2.206,0 4,-1.794 4,-4 0,-2.206 -1.794,-4 -4,-4 z m 0,6 c -1.103,0 -2,-0.897 -2,-2 0,-1.103 0.897,-2 2,-2 1.103,0 2,0.897 2,2 0,1.103 -0.897,2 -2,2 z"
       id="path25"
       inkscape:connector-curvature="0" /><path
       d="m 52,35 -14,0 c -0.553,0 -1,0.447 -1,1 l 0,14 c 0,0.553 0.447,1 1,1 l 14,0 c 0.553,0 1,-0.447 1,-1 l 0,-14 c 0,-0.553 -0.447,-1 -1,-1 z m -1,14 -12,0 0,-12 12,0 0,12 z"
       id="path27"
       inkscape:connector-curvature="0" /><path
       d="m 52,24 -14,0 c -0.553,0 -1,0.447 -1,1 l 0,6 c 0,0.553 0.447,1 1,1 l 14,0 c 0.553,0 1,-0.447 1,-1 l 0,-6 c 0,-0.553 -0.447,-1 -1,-1 z m -1,6 -12,0 0,-4 12,0 0,4 z"
       id="path29"
       inkscape:connector-curvature="0" /><path
       d="M 44.293,16.707 C 44.488,16.902 44.744,17 45,17 c 0.256,0 0.512,-0.098 0.707,-0.293 L 47,15.414 48.293,16.707 C 48.488,16.902 48.744,17 49,17 c 0.256,0 0.512,-0.098 0.707,-0.293 0.391,-0.391 0.391,-1.023 0,-1.414 L 48.414,14 49.707,12.707 c 0.391,-0.391 0.391,-1.023 0,-1.414 -0.391,-0.391 -1.023,-0.391 -1.414,0 L 47,12.586 45.707,11.293 c -0.391,-0.391 -1.023,-0.391 -1.414,0 -0.391,0.391 -0.391,1.023 0,1.414 L 45.586,14 44.293,15.293 c -0.391,0.391 -0.391,1.023 0,1.414 z"
       id="path31"
       inkscape:connector-curvature="0" /><path
       d="M 36.293,16.707 C 36.488,16.902 36.744,17 37,17 c 0.256,0 0.512,-0.098 0.707,-0.293 L 39,15.414 40.293,16.707 C 40.488,16.902 40.744,17 41,17 c 0.256,0 0.512,-0.098 0.707,-0.293 0.391,-0.391 0.391,-1.023 0,-1.414 L 40.414,14 41.707,12.707 c 0.391,-0.391 0.391,-1.023 0,-1.414 -0.391,-0.391 -1.023,-0.391 -1.414,0 L 39,12.586 37.707,11.293 c -0.391,-0.391 -1.023,-0.391 -1.414,0 -0.391,0.391 -0.391,1.023 0,1.414 L 37.586,14 36.293,15.293 c -0.391,0.391 -0.391,1.023 0,1.414 z"
       id="path33"
       inkscape:connector-curvature="0" /><path
       d="M 28.293,16.707 C 28.488,16.902 28.744,17 29,17 c 0.256,0 0.512,-0.098 0.707,-0.293 L 31,15.414 32.293,16.707 C 32.488,16.902 32.744,17 33,17 c 0.256,0 0.512,-0.098 0.707,-0.293 0.391,-0.391 0.391,-1.023 0,-1.414 L 32.414,14 33.707,12.707 c 0.391,-0.391 0.391,-1.023 0,-1.414 -0.391,-0.391 -1.023,-0.391 -1.414,0 L 31,12.586 29.707,11.293 c -0.391,-0.391 -1.023,-0.391 -1.414,0 -0.391,0.391 -0.391,1.023 0,1.414 L 29.586,14 28.293,15.293 c -0.391,0.391 -0.391,1.023 0,1.414 z"
       id="path35"
       inkscape:connector-curvature="0" /><path
       d="M 20.293,16.707 C 20.488,16.902 20.744,17 21,17 c 0.256,0 0.512,-0.098 0.707,-0.293 L 23,15.414 24.293,16.707 C 24.488,16.902 24.744,17 25,17 c 0.256,0 0.512,-0.098 0.707,-0.293 0.391,-0.391 0.391,-1.023 0,-1.414 L 24.414,14 25.707,12.707 c 0.391,-0.391 0.391,-1.023 0,-1.414 -0.391,-0.391 -1.023,-0.391 -1.414,0 L 23,12.586 21.707,11.293 c -0.391,-0.391 -1.023,-0.391 -1.414,0 -0.391,0.391 -0.391,1.023 0,1.414 L 21.586,14 20.293,15.293 c -0.391,0.391 -0.391,1.023 0,1.414 z"
       id="path37"
       inkscape:connector-curvature="0" /></g><g
     id="g39"
     transform="translate(0,452)" /><g
     id="g41"
     transform="translate(0,452)" /><g
     id="g43"
     transform="translate(0,452)" /><g
     id="g45"
     transform="translate(0,452)" /><g
     id="g47"
     transform="translate(0,452)" /><g
     id="g49"
     transform="translate(0,452)" /><g
     id="g51"
     transform="translate(0,452)" /><g
     id="g53"
     transform="translate(0,452)" /><g
     id="g55"
     transform="translate(0,452)" /><g
     id="g57"
     transform="translate(0,452)" /><g
     id="g59"
     transform="translate(0,452)" /><g
     id="g61"
     transform="translate(0,452)" /><g
     id="g63"
     transform="translate(0,452)" /><g
     id="g65"
     transform="translate(0,452)" /><g
     id="g67"
     transform="translate(0,452)" /></svg>