<?xml version="1.0" encoding="UTF-8" standalone="no"?>
<!-- Generator: Adobe Illustrator 19.0.0, SVG Export Plug-In . SVG Version: 6.00 Build 0)  -->

<svg
   xmlns:dc="http://purl.org/dc/elements/1.1/"
   xmlns:cc="http://creativecommons.org/ns#"
   xmlns:rdf="http://www.w3.org/1999/02/22-rdf-syntax-ns#"
   xmlns:svg="http://www.w3.org/2000/svg"
   xmlns="http://www.w3.org/2000/svg"
   xmlns:sodipodi="http://sodipodi.sourceforge.net/DTD/sodipodi-0.dtd"
   xmlns:inkscape="http://www.inkscape.org/namespaces/inkscape"
   version="1.1"
   id="Capa_1"
   x="0px"
   y="0px"
   viewBox="0 0 512.00001 512.00001"
   xml:space="preserve"
   inkscape:version="0.91 r13725"
   sodipodi:docname="camera.svg"
   width="512"
   height="512"
   inkscape:export-filename="C:\Users\wojci\Downloads\mymanagement\images\camera.png"
   inkscape:export-xdpi="90"
   inkscape:export-ydpi="90"><metadata
     id="metadata47"><rdf:RDF><cc:Work
         rdf:about=""><dc:format>image/svg+xml</dc:format><dc:type
           rdf:resource="http://purl.org/dc/dcmitype/StillImage" /><dc:title /></cc:Work></rdf:RDF></metadata><defs
     id="defs45" /><sodipodi:namedview
     pagecolor="#ffffff"
     bordercolor="#666666"
     borderopacity="1"
     objecttolerance="10"
     gridtolerance="10"
     guidetolerance="10"
     inkscape:pageopacity="0"
     inkscape:pageshadow="2"
     inkscape:window-width="1366"
     inkscape:window-height="705"
     id="namedview43"
     showgrid="false"
     inkscape:zoom="0.34736558"
     inkscape:cx="-1132.0212"
     inkscape:cy="45.768624"
     inkscape:window-x="-8"
     inkscape:window-y="-8"
     inkscape:window-maximized="1"
     inkscape:current-layer="Capa_1" /><g
     id="g3"
     transform="matrix(8.526036,0,0,8.526036,-0.00551472,-0.00275694)"><path
       d="m 56.963,32.026 -1.823,0 c -1.703,0 -3.088,1.385 -3.088,3.088 l 0,3.912 -10,0 0,-6.219 c 3.646,-1.177 5.957,-6.052 5.957,-12.781 0,-7.235 -2.669,-12.333 -6.8,-12.988 C 41.157,7.03 41.105,7.026 41.052,7.026 l -40,0 c -0.481,0 -0.893,0.343 -0.982,0.816 l -0.001,0 c -0.02,0.107 -0.472,2.648 1.243,4.714 1.138,1.371 2.92,2.169 5.292,2.395 -0.357,1.59 -0.552,3.31 -0.552,5.075 0,7.29 3.075,13 7,13 l 21,0 0,12.967 c 0,1.672 1.36,3.033 3.033,3.033 l 1.935,0 c 1.308,0 2.415,-0.837 2.84,-2 l 10.193,0 0,2.912 c 0,1.703 1.385,3.088 3.088,3.088 l 1.823,0 c 1.703,0 3.088,-1.385 3.088,-3.088 l 0,-14.824 c -10e-4,-1.703 -1.386,-3.088 -3.089,-3.088 z m -15.996,-23 c 2.397,0.436 4.788,3.683 5.018,10 l -20.52,0 -3.707,-3.707 C 21.57,15.131 21.316,15.026 21.051,15.026 l -2,0 -0.349,0 -3.985,0 -1.07,0 c -0.009,-0.014 -0.02,-0.028 -0.029,-0.042 -0.102,-0.164 -0.216,-0.329 -0.34,-0.495 -0.067,-0.09 -0.142,-0.18 -0.215,-0.27 -0.033,-0.041 -0.064,-0.082 -0.098,-0.123 -0.04,-0.047 -0.081,-0.094 -0.123,-0.141 -0.044,-0.05 -0.08,-0.099 -0.125,-0.149 C 12.7,13.787 12.678,13.774 12.659,13.756 12.547,13.635 12.43,13.514 12.307,13.392 12.228,13.314 12.148,13.237 12.066,13.16 11.867,12.974 11.657,12.787 11.433,12.6 11.253,12.449 11.065,12.302 10.875,12.155 10.788,12.088 10.702,12.021 10.612,11.954 9.099,10.823 7.347,9.82 5.766,9.026 l 35.201,0 z m -26.916,9.666 c 0,2.09 -0.6,3.471 -1,4.073 -0.4,-0.603 -1,-1.983 -1,-4.073 0,-0.806 0.087,-1.489 0.21,-2.053 0.004,0.006 0.012,0.008 0.017,0.013 0.084,0.103 0.186,0.184 0.302,0.246 0.025,0.013 0.049,0.023 0.076,0.034 0.124,0.054 0.255,0.092 0.396,0.092 l 0.862,0 c 0.091,0.534 0.137,1.092 0.137,1.668 z M 2.864,11.296 C 2.382,10.722 2.168,10.078 2.073,9.523 3.581,10.171 5.582,11.129 7.427,12.239 7.329,12.485 7.239,12.74 7.151,12.998 5.147,12.87 3.708,12.299 2.864,11.296 Z m 5.187,8.73 c 0,-2.422 0.382,-4.745 1.086,-6.671 0.02,0.014 0.04,0.028 0.06,0.042 0.617,0.445 1.133,0.879 1.576,1.303 -0.351,0.861 -0.723,2.197 -0.723,3.992 0,3.374 1.402,6.333 3,6.333 1.598,0 3,-2.959 3,-6.333 0,-0.571 -0.048,-1.125 -0.124,-1.667 l 1.92,0 c 0.135,0.988 0.204,1.994 0.204,3 0,6.195 -2.688,11 -5,11 -2.363,0.001 -4.999,-4.517 -4.999,-10.999 z m 8.673,11 c 0.028,-0.033 0.053,-0.075 0.081,-0.109 0.191,-0.231 0.376,-0.479 0.554,-0.742 0.03,-0.044 0.061,-0.082 0.091,-0.127 0.205,-0.313 0.399,-0.65 0.585,-1.003 0.05,-0.094 0.095,-0.195 0.143,-0.292 0.134,-0.271 0.262,-0.55 0.384,-0.84 0.052,-0.124 0.103,-0.249 0.153,-0.376 0.119,-0.304 0.229,-0.618 0.334,-0.94 0.034,-0.106 0.072,-0.208 0.104,-0.315 0.131,-0.43 0.249,-0.872 0.354,-1.328 0.021,-0.091 0.036,-0.185 0.056,-0.276 0.079,-0.371 0.15,-0.749 0.211,-1.135 0.024,-0.155 0.045,-0.311 0.067,-0.467 0.047,-0.349 0.086,-0.703 0.117,-1.061 0.013,-0.152 0.029,-0.303 0.039,-0.457 0.034,-0.504 0.056,-1.014 0.056,-1.532 l 0,-3 0.586,0 3.707,3.707 c 0.188,0.188 0.442,0.293 0.707,0.293 l 20.934,0 c -0.23,6.317 -2.621,9.564 -5.018,10 l -6.916,0 -17.329,0 z m 22.295,16 -1.935,0 c -0.569,0 -1.033,-0.463 -1.033,-1.033 l 0,-12.967 4,0 0,6 0,6.967 c 0,0.569 -0.463,1.033 -1.032,1.033 z m 3.032,-2 0,-4 10,0 0,4 -10,0 z m 16,4.911 c 0,0.6 -0.488,1.088 -1.088,1.088 l -1.823,0 c -0.6,0 -1.088,-0.488 -1.088,-1.088 l 0,-2.912 0,-8 0,-3.912 c 0,-0.6 0.488,-1.088 1.088,-1.088 l 1.823,0 c 0.6,0 1.088,0.488 1.088,1.088 l 0,14.824 z"
       id="path5"
       inkscape:connector-curvature="0" /><circle
       cx="32.050999"
       cy="27.025999"
       r="1"
       id="circle7" /><circle
       cx="28.051001"
       cy="27.025999"
       r="1"
       id="circle9" /><circle
       cx="24.051001"
       cy="27.025999"
       r="1"
       id="circle11" /></g><g
     id="g13"
     transform="translate(0,451.949)" /><g
     id="g15"
     transform="translate(0,451.949)" /><g
     id="g17"
     transform="translate(0,451.949)" /><g
     id="g19"
     transform="translate(0,451.949)" /><g
     id="g21"
     transform="translate(0,451.949)" /><g
     id="g23"
     transform="translate(0,451.949)" /><g
     id="g25"
     transform="translate(0,451.949)" /><g
     id="g27"
     transform="translate(0,451.949)" /><g
     id="g29"
     transform="translate(0,451.949)" /><g
     id="g31"
     transform="translate(0,451.949)" /><g
     id="g33"
     transform="translate(0,451.949)" /><g
     id="g35"
     transform="translate(0,451.949)" /><g
     id="g37"
     transform="translate(0,451.949)" /><g
     id="g39"
     transform="translate(0,451.949)" /><g
     id="g41"
     transform="translate(0,451.949)" /></svg>