<?xml version="1.0" encoding="UTF-8" standalone="no"?>
<!-- Generator: Adobe Illustrator 19.0.0, SVG Export Plug-In . SVG Version: 6.00 Build 0)  -->

<svg
   xmlns:dc="http://purl.org/dc/elements/1.1/"
   xmlns:cc="http://creativecommons.org/ns#"
   xmlns:rdf="http://www.w3.org/1999/02/22-rdf-syntax-ns#"
   xmlns:svg="http://www.w3.org/2000/svg"
   xmlns="http://www.w3.org/2000/svg"
   xmlns:sodipodi="http://sodipodi.sourceforge.net/DTD/sodipodi-0.dtd"
   xmlns:inkscape="http://www.inkscape.org/namespaces/inkscape"
   version="1.1"
   id="Capa_1"
   x="0px"
   y="0px"
   viewBox="0 0 512 512"
   xml:space="preserve"
   inkscape:version="0.91 r13725"
   sodipodi:docname="monitor.svg"
   width="512"
   height="512"
   inkscape:export-filename="C:\Users\wojci\Downloads\mymanagement\images\monitor.png"
   inkscape:export-xdpi="90"
   inkscape:export-ydpi="90"><metadata
     id="metadata45"><rdf:RDF><cc:Work
         rdf:about=""><dc:format>image/svg+xml</dc:format><dc:type
           rdf:resource="http://purl.org/dc/dcmitype/StillImage" /><dc:title /></cc:Work></rdf:RDF></metadata><defs
     id="defs43" /><sodipodi:namedview
     pagecolor="#ffffff"
     bordercolor="#666666"
     borderopacity="1"
     objecttolerance="10"
     gridtolerance="10"
     guidetolerance="10"
     inkscape:pageopacity="0"
     inkscape:pageshadow="2"
     inkscape:window-width="1366"
     inkscape:window-height="705"
     id="namedview41"
     showgrid="false"
     inkscape:zoom="3.9333333"
     inkscape:cx="-33.177967"
     inkscape:cy="30"
     inkscape:window-x="-8"
     inkscape:window-y="-8"
     inkscape:window-maximized="1"
     inkscape:current-layer="Capa_1" /><g
     id="g3"
     transform="scale(8.5333333,8.5333333)"
     inkscape:export-xdpi="28"
     inkscape:export-ydpi="28"><path
       d="M 58.422,48 57,48 57,10.067 C 57,7.824 55.176,6 52.934,6 L 7.066,6 C 4.824,6 3,7.824 3,10.067 L 3,48 1.578,48 C 0.708,48 0,48.708 0,49.578 l 0,2.844 C 0,53.292 0.708,54 1.578,54 l 56.844,0 C 59.292,54 60,53.292 60,52.422 l 0,-2.844 C 60,48.708 59.292,48 58.422,48 Z M 5,10.067 C 5,8.927 5.927,8 7.066,8 L 52.933,8 C 54.073,8 55,8.927 55,10.067 L 55,48 35.203,48 34.966,48.663 C 34.905,48.831 34.738,49 34.5,49 l -8,0 c -0.238,0 -0.405,-0.169 -0.466,-0.337 L 25.797,48 5,48 5,10.067 Z M 58,52 2,52 l 0,-2 1,0 21.509,0 c 0.464,0.617 1.198,1 1.991,1 l 8,0 c 0.793,0 1.527,-0.383 1.991,-1 L 57,50 l 1,0 0,2 z"
       id="path5"
       inkscape:connector-curvature="0" /><path
       d="M 54,9 6,9 6,47 54,47 54,9 Z m -2,36 -44,0 0,-34 44,0 0,34 z"
       id="path7"
       inkscape:connector-curvature="0" /><path
       d="m 22,39 15,0 c 0.553,0 1,-0.448 1,-1 l 0,-12 c 0,-0.552 -0.447,-1 -1,-1 l -2,0 0,-2.5 C 35,19.467 32.532,17 29.5,17 26.468,17 24,19.467 24,22.5 l 0,2.5 -2,0 c -0.553,0 -1,0.448 -1,1 l 0,12 c 0,0.552 0.447,1 1,1 z m 4,-16.5 c 0,-1.93 1.57,-3.5 3.5,-3.5 1.93,0 3.5,1.57 3.5,3.5 l 0,2.5 -7,0 0,-2.5 z m -3,4.5 2,0 9,0 2,0 0,10 -13,0 0,-10 z"
       id="path9"
       inkscape:connector-curvature="0" /></g><g
     id="g11"
     transform="translate(0,452)" /><g
     id="g13"
     transform="translate(0,452)" /><g
     id="g15"
     transform="translate(0,452)" /><g
     id="g17"
     transform="translate(0,452)" /><g
     id="g19"
     transform="translate(0,452)" /><g
     id="g21"
     transform="translate(0,452)" /><g
     id="g23"
     transform="translate(0,452)" /><g
     id="g25"
     transform="translate(0,452)" /><g
     id="g27"
     transform="translate(0,452)" /><g
     id="g29"
     transform="translate(0,452)" /><g
     id="g31"
     transform="translate(0,452)" /><g
     id="g33"
     transform="translate(0,452)" /><g
     id="g35"
     transform="translate(0,452)" /><g
     id="g37"
     transform="translate(0,452)" /><g
     id="g39"
     transform="translate(0,452)" /></svg>